<svg width="192" height="262" fill="none" xmlns="http://www.w3.org/2000/svg"><path d="M0 5.2a5 5 0 015.2-5l182 8a5 5 0 014.8 5V257a5 5 0 01-5 5H5a5 5 0 01-5-5V5.2z" fill="url(#paint0_linear)"/><path d="M7.2 3.7l178 7.9c2.4 0 4.3 2 4.3 4.4v238c0 2.5-2 4.5-4.5 4.5H7c-2.5 0-4.5-2-4.5-4.5V8.2c0-2.5 2.1-4.6 4.7-4.5z" stroke="#121F53"/><defs><linearGradient id="paint0_linear" x1="0" y1="131" x2="192" y2="131" gradientUnits="userSpaceOnUse"><stop stop-color="#171719"/><stop offset=".5" stop-color="#1C1C1D"/><stop offset="1" stop-color="#202020"/></linearGradient></defs></svg>