<svg width="703" height="191" fill="none" xmlns="http://www.w3.org/2000/svg"><path d="M0 5a5 5 0 015-5l693 13a5 5 0 015 5v168a5 5 0 01-5 5H5a5 5 0 01-5-5V5z" fill="url(#paint0_linear)"/><path d="M11 7.6l680 11.9c2.5 0 4.5 2 4.5 4.5v155c0 2.5-2 4.5-4.5 4.5H11c-2.5 0-4.5-2-4.5-4.5V12c0-2.4 2-4.5 4.6-4.4z" stroke="#121F53"/><defs><linearGradient id="paint0_linear" x1="0" y1="95.5" x2="703" y2="95.5" gradientUnits="userSpaceOnUse"><stop stop-color="#171719"/><stop offset=".5" stop-color="#1C1C1D"/><stop offset="1" stop-color="#202020"/></linearGradient></defs></svg>